<mxfile host="Electron" modified="2024-02-24T08:12:06.484Z" agent="Mozilla/5.0 (Macintosh; Intel Mac OS X 10_15_7) AppleWebKit/537.36 (KHTML, like Gecko) draw.io/23.1.5 Chrome/120.0.6099.109 Electron/28.1.0 Safari/537.36" etag="S6qWNRLLAUgrhodZxoVF" version="23.1.5" type="device">
  <diagram name="페이지-1" id="Q1eLWZ1q35hIJVfAhGd9">
    <mxGraphModel dx="1114" dy="894" grid="1" gridSize="10" guides="1" tooltips="1" connect="1" arrows="1" fold="1" page="1" pageScale="1" pageWidth="827" pageHeight="1169" math="0" shadow="0">
      <root>
        <mxCell id="0" />
        <mxCell id="1" parent="0" />
        <mxCell id="BhpwgVmnCRLUzh3NLoiR-8" style="edgeStyle=orthogonalEdgeStyle;rounded=0;orthogonalLoop=1;jettySize=auto;html=1;entryX=0;entryY=0.5;entryDx=0;entryDy=0;endArrow=block;endFill=1;" edge="1" parent="1" source="BhpwgVmnCRLUzh3NLoiR-1" target="BhpwgVmnCRLUzh3NLoiR-2">
          <mxGeometry relative="1" as="geometry" />
        </mxCell>
        <mxCell id="BhpwgVmnCRLUzh3NLoiR-1" value="AuthenticationFilter" style="rounded=0;whiteSpace=wrap;html=1;fillColor=#f8cecc;strokeColor=#b85450;" vertex="1" parent="1">
          <mxGeometry x="80" y="120" width="140" height="40" as="geometry" />
        </mxCell>
        <mxCell id="BhpwgVmnCRLUzh3NLoiR-9" style="edgeStyle=orthogonalEdgeStyle;rounded=0;orthogonalLoop=1;jettySize=auto;html=1;entryX=0;entryY=0.5;entryDx=0;entryDy=0;endArrow=block;endFill=1;" edge="1" parent="1" source="BhpwgVmnCRLUzh3NLoiR-2" target="BhpwgVmnCRLUzh3NLoiR-6">
          <mxGeometry relative="1" as="geometry" />
        </mxCell>
        <mxCell id="BhpwgVmnCRLUzh3NLoiR-10" style="edgeStyle=orthogonalEdgeStyle;rounded=0;orthogonalLoop=1;jettySize=auto;html=1;entryX=0;entryY=0.5;entryDx=0;entryDy=0;endArrow=block;endFill=1;" edge="1" parent="1" source="BhpwgVmnCRLUzh3NLoiR-2" target="BhpwgVmnCRLUzh3NLoiR-5">
          <mxGeometry relative="1" as="geometry" />
        </mxCell>
        <mxCell id="BhpwgVmnCRLUzh3NLoiR-11" style="edgeStyle=orthogonalEdgeStyle;rounded=0;orthogonalLoop=1;jettySize=auto;html=1;entryX=0;entryY=0.5;entryDx=0;entryDy=0;endArrow=block;endFill=1;" edge="1" parent="1" source="BhpwgVmnCRLUzh3NLoiR-2" target="BhpwgVmnCRLUzh3NLoiR-7">
          <mxGeometry relative="1" as="geometry" />
        </mxCell>
        <mxCell id="BhpwgVmnCRLUzh3NLoiR-2" value="AuthenticationManager" style="rounded=0;whiteSpace=wrap;html=1;" vertex="1" parent="1">
          <mxGeometry x="270" y="120" width="140" height="40" as="geometry" />
        </mxCell>
        <mxCell id="BhpwgVmnCRLUzh3NLoiR-5" value="AuthenticationProvider #1" style="rounded=0;whiteSpace=wrap;html=1;fillColor=#f8cecc;strokeColor=#b85450;" vertex="1" parent="1">
          <mxGeometry x="470" y="70" width="150" height="40" as="geometry" />
        </mxCell>
        <mxCell id="BhpwgVmnCRLUzh3NLoiR-6" value="AuthenticationProvider #2" style="rounded=0;whiteSpace=wrap;html=1;fillColor=#f8cecc;strokeColor=#b85450;" vertex="1" parent="1">
          <mxGeometry x="470" y="120" width="150" height="40" as="geometry" />
        </mxCell>
        <mxCell id="BhpwgVmnCRLUzh3NLoiR-7" value="AuthenticationProvider #3" style="rounded=0;whiteSpace=wrap;html=1;fillColor=#f8cecc;strokeColor=#b85450;" vertex="1" parent="1">
          <mxGeometry x="470" y="170" width="150" height="40" as="geometry" />
        </mxCell>
        <mxCell id="BhpwgVmnCRLUzh3NLoiR-12" value="인증 필터가 3가지 각각의 인증 단계별로 다른 Authentication 객체 전달" style="text;html=1;align=center;verticalAlign=middle;whiteSpace=wrap;rounded=0;fillColor=#d5e8d4;strokeColor=#82b366;sketch=1;curveFitting=1;jiggle=2;" vertex="1" parent="1">
          <mxGeometry x="30" y="200" width="200" height="40" as="geometry" />
        </mxCell>
        <mxCell id="BhpwgVmnCRLUzh3NLoiR-13" style="edgeStyle=orthogonalEdgeStyle;rounded=0;orthogonalLoop=1;jettySize=auto;html=1;entryX=0.186;entryY=1;entryDx=0;entryDy=0;entryPerimeter=0;curved=1;fillColor=#d5e8d4;strokeColor=#82b366;" edge="1" parent="1" source="BhpwgVmnCRLUzh3NLoiR-12" target="BhpwgVmnCRLUzh3NLoiR-1">
          <mxGeometry relative="1" as="geometry" />
        </mxCell>
        <mxCell id="BhpwgVmnCRLUzh3NLoiR-14" value="각 Authentication 객체에 대응하는 3개의 인증 공급자" style="text;html=1;align=center;verticalAlign=middle;whiteSpace=wrap;rounded=0;fillColor=#d5e8d4;strokeColor=#82b366;sketch=1;curveFitting=1;jiggle=2;" vertex="1" parent="1">
          <mxGeometry x="660" y="120" width="180" height="40" as="geometry" />
        </mxCell>
      </root>
    </mxGraphModel>
  </diagram>
</mxfile>
